<svg xmlns="http://www.w3.org/2000/svg" width="2200" height="1240" viewBox="0 0 2200 1240" role="img" aria-labelledby="title desc">
  <title id="title">model-port Architecture</title>
  <desc id="desc">Local-first ModelOps gateway flow from vendor submission through training, W&amp;B tracking, evaluation, registry promotion, and future rollout telemetry.</desc>
  <defs>
    <style>
      .bg { fill: #f6f8fc; }
      text { font-family: Inter, Arial, sans-serif; }
      .title { fill: #172033; font-size: 54px; font-weight: 700; }
      .subtitle { fill: #607086; font-size: 24px; font-weight: 400; }
      .lane { fill: #ffffff; stroke: #cfd8e6; stroke-width: 2; }
      .lane-shadow { fill: #d9e2ef; opacity: .45; }
      .lane-title { fill: #68758a; font-size: 28px; font-weight: 700; }
      .card-title { fill: #1e293b; font-size: 22px; font-weight: 700; }
      .card-body { fill: #334155; font-size: 17px; font-weight: 400; }
      .small { fill: #607086; font-size: 15px; font-weight: 400; }
      .tiny { fill: #718096; font-size: 13px; font-weight: 400; }
      .badge { fill: #ffffff; stroke-width: 2; }
      .badge-text { font-size: 15px; font-weight: 700; }
      .vendor { fill: #dbeafe; stroke: #3b82f6; stroke-width: 3; }
      .train { fill: #dcfce7; stroke: #22a35a; stroke-width: 3; }
      .wandb { fill: #fef3c7; stroke: #d99a00; stroke-width: 3; }
      .gateway { fill: #ede9fe; stroke: #8b5cf6; stroke-width: 3; }
      .blocked { fill: #fee2e2; stroke: #ef4444; stroke-width: 3; }
      .rollout { fill: #f1f5f9; stroke: #94a3b8; stroke-width: 3; }
      .arrow { fill: none; stroke: #64748b; stroke-width: 3; }
      .arrow-soft { fill: none; stroke: #94a3b8; stroke-width: 2.5; }
      .arrow-pass { fill: none; stroke: #22a35a; stroke-width: 3; }
      .arrow-fail { fill: none; stroke: #ef4444; stroke-width: 3; }
      .arrow-feedback { fill: none; stroke: #64748b; stroke-width: 2.5; stroke-dasharray: 10 8; }
      .arrowhead { fill: #64748b; }
      .arrowhead-soft { fill: #94a3b8; }
      .arrowhead-pass { fill: #22a35a; }
      .arrowhead-fail { fill: #ef4444; }
      .footer-line { stroke: #d8e0ec; stroke-width: 2; }
    </style>
    <marker id="arrow" markerWidth="6" markerHeight="6" refX="5" refY="3" orient="auto" viewBox="0 0 6 6">
      <path d="M 0 0 L 6 3 L 0 6 z" fill="#64748b"/>
    </marker>
    <marker id="arrow-soft" markerWidth="6" markerHeight="6" refX="5" refY="3" orient="auto" viewBox="0 0 6 6">
      <path d="M 0 0 L 6 3 L 0 6 z" fill="#94a3b8"/>
    </marker>
    <marker id="arrow-pass" markerWidth="6" markerHeight="6" refX="5" refY="3" orient="auto" viewBox="0 0 6 6">
      <path d="M 0 0 L 6 3 L 0 6 z" fill="#22a35a"/>
    </marker>
    <marker id="arrow-fail" markerWidth="6" markerHeight="6" refX="5" refY="3" orient="auto" viewBox="0 0 6 6">
      <path d="M 0 0 L 6 3 L 0 6 z" fill="#ef4444"/>
    </marker>
  </defs>

  <rect class="bg" width="2200" height="1240"/>

  <text class="title" x="84" y="106">model-port Architecture</text>
  <text class="subtitle" x="84" y="146">Multi-vendor ModelOps gateway for fine-tuning, evaluation, registry governance, and progressive edge rollout</text>

  <g transform="translate(84,174)">
    <rect class="badge" x="0" y="0" width="248" height="34" rx="17" stroke="#3b82f6"/>
    <text class="badge-text" x="18" y="23" fill="#1e3a8a">RTX 5080 16GB local-first</text>
    <rect class="badge" x="268" y="0" width="248" height="34" rx="17" stroke="#d99a00"/>
    <text class="badge-text" x="286" y="23" fill="#7a4b00">W&amp;B default registry</text>
    <rect class="badge" x="536" y="0" width="286" height="34" rx="17" stroke="#22a35a"/>
    <text class="badge-text" x="554" y="23" fill="#166534">quality-gated promotion</text>
    <rect class="badge" x="842" y="0" width="292" height="34" rx="17" stroke="#8b5cf6"/>
    <text class="badge-text" x="860" y="23" fill="#5b21b6">edge rollout future layer</text>
  </g>

  <g id="lanes">
    <rect class="lane-shadow" x="70" y="268" width="356" height="788" rx="28"/>
    <rect class="lane" x="68" y="260" width="356" height="788" rx="28"/>
    <text class="lane-title" x="94" y="306">1. Vendors</text>

    <rect class="lane-shadow" x="468" y="268" width="448" height="788" rx="28"/>
    <rect class="lane" x="466" y="260" width="448" height="788" rx="28"/>
    <text class="lane-title" x="494" y="306">2. Local Training</text>

    <rect class="lane-shadow" x="960" y="268" width="448" height="788" rx="28"/>
    <rect class="lane" x="958" y="260" width="448" height="788" rx="28"/>
    <text class="lane-title" x="986" y="306">3. W&amp;B + Artifacts</text>

    <rect class="lane-shadow" x="1450" y="268" width="380" height="788" rx="28"/>
    <rect class="lane" x="1448" y="260" width="380" height="788" rx="28"/>
    <text class="lane-title" x="1476" y="306">4. Gateway</text>

    <rect class="lane-shadow" x="1878" y="268" width="252" height="788" rx="28"/>
    <rect class="lane" x="1876" y="260" width="252" height="788" rx="28"/>
    <text class="lane-title" x="1904" y="306">5. Rollout</text>
  </g>

  <g id="vendor-cards">
    <rect class="vendor" x="110" y="338" width="274" height="138" rx="18"/>
    <text class="card-title" x="128" y="374">Vendor Model</text>
    <text class="card-body" x="128" y="407">SmolVLM2 / CV model</text>
    <text class="card-body" x="128" y="435">versioned submission</text>

    <rect class="vendor" x="110" y="534" width="274" height="138" rx="18"/>
    <text class="card-title" x="128" y="570">Dataset</text>
    <text class="card-body" x="128" y="603">caption / VQA / edge data</text>
    <text class="card-body" x="128" y="631">JSONL + images</text>

    <rect class="vendor" x="110" y="730" width="274" height="150" rx="18"/>
    <text class="card-title" x="128" y="766">Submission Manifest</text>
    <text class="card-body" x="128" y="799">vendor, model, version</text>
    <text class="card-body" x="128" y="827">task, runtime, artifact URI</text>
  </g>

  <g id="training-cards">
    <rect class="train" x="508" y="338" width="366" height="150" rx="18"/>
    <text class="card-title" x="528" y="374">Trainer Service</text>
    <text class="card-body" x="528" y="407">LoRA / QLoRA fine-tuning</text>
    <text class="card-body" x="528" y="435">4-bit load + bf16</text>
    <text class="card-body" x="528" y="463">GPU metrics logging</text>

    <rect class="train" x="508" y="558" width="366" height="156" rx="18"/>
    <text class="card-title" x="528" y="594">Evaluation Pipeline</text>
    <text class="card-body" x="528" y="627">base vs candidate inference</text>
    <text class="card-body" x="528" y="655">latency, failure rate</text>
    <text class="card-body" x="528" y="683">drift metrics</text>

    <rect class="train" x="508" y="786" width="366" height="150" rx="18"/>
    <text class="card-title" x="528" y="822">Build Manifest</text>
    <text class="card-body" x="528" y="855">merge eval report</text>
    <text class="card-body" x="528" y="883">deployment metadata</text>
    <text class="card-body" x="528" y="911">promotion eligibility</text>
  </g>

  <g id="wandb-cards">
    <rect class="wandb" x="1000" y="334" width="368" height="146" rx="18"/>
    <text class="card-title" x="1020" y="370">W&amp;B Runs</text>
    <text class="card-body" x="1020" y="403">train loss, LR</text>
    <text class="card-body" x="1020" y="431">GPU memory</text>
    <text class="card-body" x="1020" y="459">run lineage</text>

    <rect class="wandb" x="1000" y="552" width="368" height="158" rx="18"/>
    <text class="card-title" x="1020" y="588">Eval Tables</text>
    <text class="card-body" x="1020" y="621">image / prompt / ground truth</text>
    <text class="card-body" x="1020" y="649">base prediction</text>
    <text class="card-body" x="1020" y="677">candidate prediction</text>

    <rect class="wandb" x="1000" y="786" width="368" height="166" rx="18"/>
    <text class="card-title" x="1020" y="822">W&amp;B Artifacts / Registry</text>
    <text class="card-body" x="1020" y="855">dataset + model artifact</text>
    <text class="card-body" x="1020" y="883">candidate / passed aliases</text>
    <text class="card-body" x="1020" y="911">rejected-latency alias</text>
  </g>

  <g id="gateway-cards">
    <rect class="gateway" x="1488" y="334" width="300" height="142" rx="18"/>
    <text class="card-title" x="1508" y="370">FastAPI Gateway</text>
    <text class="card-body" x="1508" y="403">/models/register</text>
    <text class="card-body" x="1508" y="431">/models/{id}/promote</text>

    <rect class="gateway" x="1488" y="542" width="300" height="154" rx="18"/>
    <text class="card-title" x="1508" y="578">Registry Store</text>
    <text class="card-body" x="1508" y="611">models.json MVP</text>
    <text class="card-body" x="1508" y="639">future: SQLite/Postgres</text>
    <text class="card-body" x="1508" y="667">audit trail</text>

    <rect class="gateway" x="1488" y="766" width="300" height="178" rx="18"/>
    <text class="card-title" x="1508" y="802">Promotion Gate</text>
    <text class="card-body" x="1508" y="835">cloud-sim: p95 &lt;= 3000ms</text>
    <text class="card-body" x="1508" y="863">edge-target: p95 &lt;= 100ms</text>
    <text class="card-body" x="1508" y="891">block or promote</text>

    <rect class="blocked" x="1488" y="982" width="300" height="78" rx="18"/>
    <text class="card-title" x="1508" y="1018">Blocked Candidate</text>
    <text class="card-body" x="1508" y="1045">quality gate failed</text>
  </g>

  <g id="rollout-cards">
    <rect class="rollout" x="1908" y="350" width="188" height="128" rx="18"/>
    <text class="card-title" x="1928" y="386">Canary</text>
    <text class="card-body" x="1928" y="419">small device group</text>
    <text class="card-body" x="1928" y="447">staging rollout</text>

    <rect class="rollout" x="1908" y="568" width="188" height="128" rx="18"/>
    <text class="card-title" x="1928" y="604">Stable</text>
    <text class="card-body" x="1928" y="637">production group</text>
    <text class="card-body" x="1928" y="665">approved model</text>

    <rect class="rollout" x="1908" y="786" width="188" height="142" rx="18"/>
    <text class="card-title" x="1928" y="822">Telemetry</text>
    <text class="card-body" x="1928" y="855">latency, FPS</text>
    <text class="card-body" x="1928" y="883">errors, drift</text>
    <text class="card-body" x="1928" y="911">runtime feedback</text>
  </g>

  <g id="flow-arrows">
    <path class="arrow" d="M384 407 H490"/>
    <path class="arrow" d="M384 603 H490"/>
    <path class="arrow" d="M384 805 H448 C476 805 476 861 490 861"/>

    <path class="arrow-soft" d="M691 488 V542"/>
    <path class="arrow-soft" d="M691 714 V770"/>
    <path class="arrow" d="M874 413 H982"/>
    <path class="arrow" d="M874 636 H982"/>
    <path class="arrow" d="M874 861 H982"/>

    <path class="arrow" d="M1368 869 H1470"/>
    <path class="arrow-soft" d="M1638 476 V526"/>
    <path class="arrow-soft" d="M1638 696 V750"/>
    <path class="arrow-fail" d="M1638 944 V966"/>
    <path class="arrow-pass" d="M1788 855 C1848 780 1850 430 1894 414"/>

    <path class="arrow-soft" d="M2002 478 V552"/>
    <path class="arrow-soft" d="M2002 786 V712"/>
    <path class="arrow-feedback" d="M1908 858 C1842 860 1842 860 1802 860"/>

    <polygon class="arrowhead" points="490,407 472,398 472,416"/>
    <polygon class="arrowhead" points="490,603 472,594 472,612"/>
    <polygon class="arrowhead" points="490,861 472,852 472,870"/>
    <polygon class="arrowhead-soft" points="691,542 682,524 700,524"/>
    <polygon class="arrowhead-soft" points="691,770 682,752 700,752"/>
    <polygon class="arrowhead" points="982,413 964,404 964,422"/>
    <polygon class="arrowhead" points="982,636 964,627 964,645"/>
    <polygon class="arrowhead" points="982,861 964,852 964,870"/>
    <polygon class="arrowhead" points="1470,869 1452,860 1452,878"/>
    <polygon class="arrowhead-soft" points="1638,526 1629,508 1647,508"/>
    <polygon class="arrowhead-soft" points="1638,750 1629,732 1647,732"/>
    <polygon class="arrowhead-fail" points="1638,966 1629,948 1647,948"/>
    <polygon class="arrowhead-pass" points="1894,414 1874,407 1883,428"/>
    <polygon class="arrowhead-soft" points="2002,552 1993,534 2011,534"/>
    <polygon class="arrowhead-soft" points="2002,712 1993,730 2011,730"/>
    <polygon class="arrowhead" points="1802,860 1820,851 1820,869"/>
  </g>

  <g id="annotations">
    <text class="small" x="1742" y="740" fill="#22a35a">passed</text>
    <text class="small" x="1737" y="902" fill="#ef4444">failed</text>
    <text class="tiny" x="1788" y="902" fill="#ef4444">keep rejection metadata</text>
    <text class="tiny" x="1836" y="966">rollback signal</text>
  </g>

  <line class="footer-line" x1="84" y1="1128" x2="2116" y2="1128"/>
  <text class="small" x="84" y="1172">Current MVP: Docker Compose + W&amp;B Local + JSON registry. Next: SQLite/Postgres registry, rollout controller, Prometheus/Grafana telemetry, edge-friendly CV model track.</text>
</svg>
