<svg xmlns="http://www.w3.org/2000/svg" width="2100" height="860" viewBox="50 240 2100 860" role="img" aria-labelledby="title desc">
  <title id="title">model-port Architecture Blocks</title>
  <desc id="desc">Five architecture blocks covering vendors, local training, W&amp;B artifacts, gateway, and rollout.</desc>
  <defs>
    <style>
      .bg { fill: #f6f8fc; }
      text { font-family: Inter, Arial, sans-serif; }
      .lane { fill: #ffffff; stroke: #cfd8e6; stroke-width: 2; }
      .lane-shadow { fill: #d9e2ef; opacity: .45; }
      .lane-title { fill: #68758a; font-size: 28px; font-weight: 700; }
      .card-title { fill: #1e293b; font-size: 22px; font-weight: 700; }
      .card-body { fill: #334155; font-size: 17px; font-weight: 400; }
      .vendor { fill: #dbeafe; stroke: #3b82f6; stroke-width: 3; }
      .train { fill: #dcfce7; stroke: #22a35a; stroke-width: 3; }
      .wandb { fill: #fef3c7; stroke: #d99a00; stroke-width: 3; }
      .gateway { fill: #ede9fe; stroke: #8b5cf6; stroke-width: 3; }
      .blocked { fill: #fee2e2; stroke: #ef4444; stroke-width: 3; }
      .rollout { fill: #f1f5f9; stroke: #94a3b8; stroke-width: 3; }
    </style>
  </defs>

  <rect class="bg" width="2200" height="1240"/>

  <g id="lanes">
    <rect class="lane-shadow" x="70" y="268" width="356" height="788" rx="28"/>
    <rect class="lane" x="68" y="260" width="356" height="788" rx="28"/>
    <text class="lane-title" x="94" y="306">1. Vendors</text>

    <rect class="lane-shadow" x="468" y="268" width="448" height="788" rx="28"/>
    <rect class="lane" x="466" y="260" width="448" height="788" rx="28"/>
    <text class="lane-title" x="494" y="306">2. Local Training</text>

    <rect class="lane-shadow" x="960" y="268" width="448" height="788" rx="28"/>
    <rect class="lane" x="958" y="260" width="448" height="788" rx="28"/>
    <text class="lane-title" x="986" y="306">3. W&amp;B + Artifacts</text>

    <rect class="lane-shadow" x="1450" y="268" width="380" height="788" rx="28"/>
    <rect class="lane" x="1448" y="260" width="380" height="788" rx="28"/>
    <text class="lane-title" x="1476" y="306">4. Gateway</text>

    <rect class="lane-shadow" x="1878" y="268" width="252" height="788" rx="28"/>
    <rect class="lane" x="1876" y="260" width="252" height="788" rx="28"/>
    <text class="lane-title" x="1904" y="306">5. Rollout</text>
  </g>

  <g id="vendor-cards">
    <rect class="vendor" x="110" y="338" width="274" height="138" rx="18"/>
    <text class="card-title" x="128" y="374">Vendor Model</text>
    <text class="card-body" x="128" y="407">SmolVLM2 / CV model</text>
    <text class="card-body" x="128" y="435">versioned submission</text>

    <rect class="vendor" x="110" y="534" width="274" height="138" rx="18"/>
    <text class="card-title" x="128" y="570">Dataset</text>
    <text class="card-body" x="128" y="603">caption / VQA / edge data</text>
    <text class="card-body" x="128" y="631">JSONL + images</text>

    <rect class="vendor" x="110" y="730" width="274" height="150" rx="18"/>
    <text class="card-title" x="128" y="766">Submission Manifest</text>
    <text class="card-body" x="128" y="799">vendor, model, version</text>
    <text class="card-body" x="128" y="827">task, runtime, artifact URI</text>
  </g>

  <g id="training-cards">
    <rect class="train" x="508" y="338" width="366" height="150" rx="18"/>
    <text class="card-title" x="528" y="374">Trainer Service</text>
    <text class="card-body" x="528" y="407">LoRA / QLoRA fine-tuning</text>
    <text class="card-body" x="528" y="435">4-bit load + bf16</text>
    <text class="card-body" x="528" y="463">GPU metrics logging</text>

    <rect class="train" x="508" y="558" width="366" height="156" rx="18"/>
    <text class="card-title" x="528" y="594">Evaluation Pipeline</text>
    <text class="card-body" x="528" y="627">base vs candidate inference</text>
    <text class="card-body" x="528" y="655">latency, failure rate</text>
    <text class="card-body" x="528" y="683">drift metrics</text>

    <rect class="train" x="508" y="786" width="366" height="150" rx="18"/>
    <text class="card-title" x="528" y="822">Build Manifest</text>
    <text class="card-body" x="528" y="855">merge eval report</text>
    <text class="card-body" x="528" y="883">deployment metadata</text>
    <text class="card-body" x="528" y="911">promotion eligibility</text>
  </g>

  <g id="wandb-cards">
    <rect class="wandb" x="1000" y="334" width="368" height="146" rx="18"/>
    <text class="card-title" x="1020" y="370">W&amp;B Runs</text>
    <text class="card-body" x="1020" y="403">train loss, LR</text>
    <text class="card-body" x="1020" y="431">GPU memory</text>
    <text class="card-body" x="1020" y="459">run lineage</text>

    <rect class="wandb" x="1000" y="552" width="368" height="158" rx="18"/>
    <text class="card-title" x="1020" y="588">Eval Tables</text>
    <text class="card-body" x="1020" y="621">image / prompt / ground truth</text>
    <text class="card-body" x="1020" y="649">base prediction</text>
    <text class="card-body" x="1020" y="677">candidate prediction</text>

    <rect class="wandb" x="1000" y="786" width="368" height="166" rx="18"/>
    <text class="card-title" x="1020" y="822">W&amp;B Artifacts / Registry</text>
    <text class="card-body" x="1020" y="855">dataset + model artifact</text>
    <text class="card-body" x="1020" y="883">candidate / passed aliases</text>
    <text class="card-body" x="1020" y="911">rejected-latency alias</text>
  </g>

  <g id="gateway-cards">
    <rect class="gateway" x="1488" y="334" width="300" height="142" rx="18"/>
    <text class="card-title" x="1508" y="370">FastAPI Gateway</text>
    <text class="card-body" x="1508" y="403">/models/register</text>
    <text class="card-body" x="1508" y="431">/models/{id}/promote</text>

    <rect class="gateway" x="1488" y="542" width="300" height="154" rx="18"/>
    <text class="card-title" x="1508" y="578">Registry Store</text>
    <text class="card-body" x="1508" y="611">models.json MVP</text>
    <text class="card-body" x="1508" y="639">future: SQLite/Postgres</text>
    <text class="card-body" x="1508" y="667">audit trail</text>

    <rect class="gateway" x="1488" y="766" width="300" height="178" rx="18"/>
    <text class="card-title" x="1508" y="802">Promotion Gate</text>
    <text class="card-body" x="1508" y="835">cloud-sim: p95 &lt;= 3000ms</text>
    <text class="card-body" x="1508" y="863">edge-target: p95 &lt;= 100ms</text>
    <text class="card-body" x="1508" y="891">block or promote</text>

    <rect class="blocked" x="1488" y="982" width="300" height="78" rx="18"/>
    <text class="card-title" x="1508" y="1018">Blocked Candidate</text>
    <text class="card-body" x="1508" y="1045">quality gate failed</text>
  </g>

  <g id="rollout-cards">
    <rect class="rollout" x="1908" y="350" width="188" height="128" rx="18"/>
    <text class="card-title" x="1928" y="386">Canary</text>
    <text class="card-body" x="1928" y="419">small device group</text>
    <text class="card-body" x="1928" y="447">staging rollout</text>

    <rect class="rollout" x="1908" y="568" width="188" height="128" rx="18"/>
    <text class="card-title" x="1928" y="604">Stable</text>
    <text class="card-body" x="1928" y="637">production group</text>
    <text class="card-body" x="1928" y="665">approved model</text>

    <rect class="rollout" x="1908" y="786" width="188" height="142" rx="18"/>
    <text class="card-title" x="1928" y="822">Telemetry</text>
    <text class="card-body" x="1928" y="855">latency, FPS</text>
    <text class="card-body" x="1928" y="883">errors, drift</text>
    <text class="card-body" x="1928" y="911">runtime feedback</text>
  </g>

</svg>
